<svg width="512" height="43" viewBox="0 0 512 43" fill="none" xmlns="http://www.w3.org/2000/svg">
<path d="M0 0.140015C0.28 0.140015 0.84 0 1.12 0C13.89 0 26.52 0 39.28 0C39.28 3.93 39.28 8.00001 39.28 11.93C35.63 11.93 31.84 11.93 28.2 11.93C28.06 21.47 28.2 30.87 28.2 40.41C22.73 40.41 17.26 40.41 11.64 40.41C11.64 31.43 11.64 22.45 11.64 13.47C11.64 12.91 11.64 12.49 11.5 11.93C7.71 12.07 3.92 11.93 0.14 12.07C-0.14 8.14001 0.14 4.07001 0 0.140015Z" fill="white"/>
<path d="M50.5114 0.140156C56.2614 0.000156254 62.0114 0.000156254 67.7714 0.140156C72.8214 13.6102 78.4314 26.9401 83.3414 40.4101C78.0114 40.4101 72.6814 40.4101 67.3514 40.4101C64.5414 32.4101 61.8814 24.4202 58.9314 16.4202C58.7914 16.9802 58.6514 17.4001 58.5114 17.9601C55.8414 25.4001 53.3214 32.9701 50.7914 40.4101C45.4614 40.4101 40.2714 40.4101 34.9414 40.4101C40.2714 26.9401 45.4614 13.6102 50.5114 0.140156Z" fill="white"/>
<path d="M79.5494 5.19C79.6894 3.51 79.4093 1.68 79.6893 0C92.7393 0.14 105.789 0 118.829 0C118.829 3.93 118.829 8.00001 118.829 11.93C115.039 11.93 111.389 11.93 107.609 11.93C107.469 21.47 107.609 30.87 107.469 40.41C101.999 40.41 96.5293 40.41 91.1893 40.41C91.1893 31.01 91.1893 21.47 91.1893 12.07C87.2593 12.07 83.4693 11.93 79.5393 12.07C79.4093 9.82001 79.6894 7.43 79.5494 5.19Z" fill="white"/>
<path d="M130.06 0.140156C135.81 0.000156254 141.56 0.000156254 147.32 0.140156C152.51 13.6102 157.84 26.9401 163.03 40.4101C157.7 40.4101 152.37 40.4101 147.04 40.4101C144.65 33.5401 142.27 26.5202 139.88 19.6402C139.6 18.5202 139.04 17.5401 138.9 16.4101C135.95 24.2701 133.43 32.4001 130.48 40.4001C125.29 40.4001 119.96 40.4001 114.77 40.4001C115.05 39.0001 115.75 37.5902 116.17 36.3302C120.94 24.2702 125.71 12.2102 130.06 0.140156Z" fill="white"/>
<path d="M207.932 2.66015C213.262 -0.00985384 219.581 -0.289845 225.471 0.700155C226.871 0.980155 228.282 1.26015 229.402 2.10015C228.702 4.49015 228.141 6.87015 227.441 9.26015C223.231 7.58015 218.181 7.02015 213.831 8.84015C210.461 10.1002 208.082 13.1902 207.102 16.7002C206.122 20.4902 206.401 24.7001 208.221 28.0601C209.621 30.8701 212.432 32.8302 215.382 33.6702C219.312 34.7902 223.522 34.0901 227.452 32.9701C227.872 35.3601 228.432 37.8802 228.712 40.2702C224.222 41.9502 219.312 42.2301 214.542 41.8101C208.652 41.2501 202.752 38.3002 199.672 33.1102C196.442 27.6402 195.882 20.9002 197.572 14.8702C199.232 9.54015 203.022 5.05015 207.932 2.66015Z" fill="white"/>
<path d="M389.201 1.53989C395.231 -0.420108 401.971 -0.280109 408.001 1.81989C407.721 4.34989 406.741 6.86989 406.181 9.25989C401.831 7.57989 396.921 7.01989 392.571 8.83989C389.201 10.0999 386.821 13.1899 385.981 16.6999C385.001 20.4899 385.281 24.8399 387.101 28.3499C388.641 31.1599 391.451 33.1199 394.681 33.8199C398.611 34.6599 402.541 34.0999 406.331 32.9799C406.751 35.5099 407.311 37.8899 407.591 40.4199C403.101 42.0999 398.191 42.3799 393.561 41.9599C387.951 41.3999 382.201 38.5899 379.111 33.8199C375.321 28.0699 374.901 20.4899 377.011 13.8999C378.541 7.99989 383.451 3.50989 389.201 1.53989Z" fill="white"/>
<path d="M495.272 0.700352C500.322 -0.279648 505.792 0.140345 510.422 2.24035C509.862 4.77035 509.022 7.29035 508.322 9.82035C505.652 8.42035 502.712 7.86034 499.762 7.86034C497.802 8.00034 495.412 8.42034 494.292 10.2503C493.312 11.7903 494.152 13.9003 495.552 14.7403C498.922 16.9803 503.132 17.5503 506.632 19.9303C509.022 21.4703 510.982 23.7204 511.682 26.5204C512.382 29.8904 511.962 33.8203 509.722 36.6203C507.622 39.4303 504.252 41.1103 500.742 41.8103C494.992 42.7903 488.952 42.2303 483.762 39.8503C484.322 37.3203 485.022 34.8003 485.582 32.1303C489.512 33.8103 494.002 35.2203 498.352 34.3703C500.312 34.0903 502.562 32.5504 502.422 30.3004C502.562 28.9004 501.442 27.7703 500.462 26.9303C498.362 25.5303 495.832 24.9704 493.592 23.9804C490.642 22.8604 487.842 21.1703 486.012 18.5103C483.772 15.2803 483.622 10.7903 485.452 7.43035C487.562 3.65035 491.352 1.40035 495.272 0.700352Z" fill="white"/>
<path d="M234.87 0.55957C237.96 0.55957 241.04 0.55957 244.13 0.55957C244.13 5.88957 244.13 11.2196 244.13 16.5496C249.18 16.5496 254.23 16.5496 259.14 16.5496C259.28 11.2196 259.14 5.88957 259.14 0.55957C262.23 0.55957 265.31 0.55957 268.4 0.55957C268.4 14.1696 268.4 27.9196 268.4 41.5296C265.31 41.5296 262.23 41.5296 259.14 41.5296C259.14 35.9196 259.14 30.1696 259.14 24.5496C254.09 24.5496 249.04 24.5496 243.99 24.5496C243.99 30.1596 243.99 35.9096 243.99 41.5296C240.9 41.5296 237.82 41.5296 234.73 41.5296C234.87 27.9196 234.87 14.3096 234.87 0.55957Z" fill="white"/>
<path d="M276.68 0.55957C285.1 0.55957 293.52 0.55957 301.93 0.55957C301.79 3.08957 302.07 5.74957 301.79 8.27957C296.6 8.13957 291.27 8.27957 286.08 8.27957C285.94 11.0896 286.08 13.8896 286.08 16.8396C291.13 16.8396 296.18 16.8396 301.23 16.8396C301.23 19.3696 301.23 21.7496 301.23 24.2796C296.18 24.4196 291.13 24.2796 286.08 24.4196C286.08 27.6496 286.08 30.8696 286.08 34.0996C291.69 34.0996 297.3 34.0996 302.92 34.0996C302.92 36.6296 302.92 39.1496 302.92 41.6796C294.22 41.6796 285.52 41.6796 276.68 41.6796C276.68 27.9195 276.68 14.3096 276.68 0.55957Z" fill="white"/>
<path d="M310.769 0.55957C314.979 0.55957 319.049 0.55957 323.259 0.55957C325.929 9.95957 329.009 19.0796 330.699 28.7596C331.119 28.4796 331.119 28.0596 331.259 27.6396C333.219 18.5196 336.309 9.53957 339.119 0.69957C343.189 0.69957 347.259 0.559569 351.329 0.839569C352.029 14.4496 352.869 28.1996 353.429 41.8096C350.339 41.8096 347.399 41.8096 344.449 41.8096C344.029 31.0096 343.329 20.1996 343.469 9.39957C342.769 10.9396 342.489 12.7696 341.929 14.3096C339.399 23.2896 336.459 32.1296 333.649 40.9696C331.119 40.9696 328.739 41.1096 326.209 40.9696C323.969 31.9896 321.159 23.2896 319.189 14.3096C318.769 12.6296 318.629 10.7996 317.929 9.11957C318.209 10.9396 317.929 12.6296 317.929 14.4496C317.649 23.5696 317.089 32.6896 316.669 41.8096C313.859 41.8096 310.919 41.8096 308.109 41.8096C308.809 27.9196 309.789 14.3096 310.769 0.55957Z" fill="white"/>
<path d="M360.441 0.55957C363.531 0.55957 366.611 0.55957 369.701 0.55957C369.701 14.1696 369.701 27.9196 369.701 41.5296C366.611 41.5296 363.531 41.5296 360.441 41.5296C360.441 27.9196 360.441 14.3096 360.441 0.55957Z" fill="white"/>
<path d="M424.14 0.699918C428.21 0.559918 432.28 0.699918 436.35 0.699918C440.56 14.3099 444.91 28.0599 449.12 41.6699C445.75 41.6699 442.39 41.6699 439.02 41.6699C438.04 38.1599 436.92 34.6499 435.93 31.2899C432.14 31.2899 428.49 31.2899 424.71 31.2899C424.01 31.1499 424.01 32.1299 423.87 32.5499C423.03 35.6399 422.19 38.7199 421.34 41.6699C418.11 41.6699 414.89 41.6699 411.66 41.6699C415.72 27.9199 420.07 14.3099 424.14 0.699918ZM428.77 12.2099C427.93 16.2799 426.53 20.2099 425.54 24.2799C428.49 24.2799 431.43 24.2799 434.38 24.2799C432.84 18.8099 431.15 13.1999 429.89 7.57991C429.47 9.11991 429.19 10.6599 428.77 12.2099Z" fill="white"/>
<path d="M454.589 0.55957C457.679 0.55957 460.759 0.55957 463.849 0.55957C463.849 11.6396 463.849 22.5896 463.849 33.6696C469.319 33.6696 474.649 33.6696 480.129 33.6696C480.129 36.3396 480.129 38.9996 480.129 41.6696C471.569 41.6696 463.149 41.6696 454.589 41.6696C454.449 28.0596 454.449 14.3096 454.589 0.55957Z" fill="white"/>
</svg>
